<svg width="30" height="30" viewBox="0 0 30 30" fill="none" xmlns="http://www.w3.org/2000/svg">
<path fill-rule="evenodd" clip-rule="evenodd" d="M10.5121 9.42749H18.579C22.6696 9.42749 24.715 9.42749 25.864 10.661C27.0128 11.8946 26.7425 13.8004 26.2019 17.6119L25.6892 21.2264C25.2652 24.2154 25.0533 25.7099 23.9658 26.6049C22.8783 27.4999 21.2743 27.4999 18.0663 27.4999H11.0248C7.81681 27.4999 6.21284 27.4999 5.12534 26.6049C4.03783 25.7099 3.82584 24.2154 3.40187 21.2264L2.88918 17.6119C2.34854 13.8004 2.07822 11.8946 3.22713 10.661C4.37604 9.42749 6.42138 9.42749 10.5121 9.42749ZM9.69704 22.5001C9.69704 21.9824 10.1493 21.5626 10.7071 21.5626H18.384C18.9418 21.5626 19.394 21.9824 19.394 22.5001C19.394 23.0179 18.9418 23.4376 18.384 23.4376H10.7071C10.1493 23.4376 9.69704 23.0179 9.69704 22.5001Z" fill="current"/>
<g opacity="0.4">
<path d="M10.3152 2.50001H18.7758C19.0576 2.49993 19.2738 2.49988 19.4626 2.51893C20.8054 2.6544 21.9044 3.48697 22.3706 4.60847H6.72046C7.18654 3.48697 8.28564 2.6544 9.62845 2.51893C9.81731 2.49988 10.0334 2.49993 10.3152 2.50001Z" fill="current"/>
</g>
<g opacity="0.7">
<path d="M7.64942 5.90332C5.96382 5.90332 4.58167 6.95301 4.12042 8.34556C4.11081 8.37458 4.1016 8.40377 4.09277 8.43308C4.57538 8.28237 5.07765 8.18391 5.58609 8.1167C6.89563 7.94356 8.55059 7.94365 10.4731 7.94376H10.6166H18.8271C20.7495 7.94365 22.4046 7.94356 23.714 8.1167C24.2225 8.18391 24.7248 8.28237 25.2074 8.43308C25.1985 8.40377 25.1893 8.37458 25.1797 8.34556C24.7185 6.95301 23.3363 5.90332 21.6508 5.90332H7.64942Z" fill="current"/>
</g>
</svg>
